<?xml version="1.0" encoding="UTF-8"?>
<svg id="Layer_2" data-name="Layer 2" xmlns="http://www.w3.org/2000/svg" xmlns:xlink="http://www.w3.org/1999/xlink" viewBox="0 0 512.04 106.04">
  <defs>
    <style>
      .cls-1 {
        fill: #324564;
      }

      .cls-2 {
        fill: #e11f2e;
      }

      .cls-3 {
        fill: #344765;
      }

      .cls-4 {
        stroke: #e11e2e;
        stroke-width: 2.45px;
      }

      .cls-4, .cls-5, .cls-6 {
        stroke-linecap: round;
        stroke-linejoin: round;
      }

      .cls-4, .cls-7 {
        fill: none;
      }

      .cls-8 {
        fill: #fff;
      }

      .cls-5 {
        fill: #f2f3f6;
        stroke: #fff;
        stroke-width: 2.58px;
      }

      .cls-9 {
        fill: #5d081c;
      }

      .cls-10 {
        clip-path: url(#clippath-1);
      }

      .cls-11 {
        fill: #5d061b;
      }

      .cls-12 {
        fill: #e81a49;
      }

      .cls-13 {
        fill: #334764;
      }

      .cls-6 {
        fill: #e71c4a;
        stroke: #2c415e;
        stroke-width: 3.22px;
      }

      .cls-14 {
        fill: #304564;
      }

      .cls-15 {
        clip-path: url(#clippath);
      }
    </style>
    <clipPath id="clippath">
      <polygon class="cls-7" points="41.9 46.11 84.12 106.04 0 106.04 41.9 46.11"/>
    </clipPath>
    <clipPath id="clippath-1">
      <path class="cls-7" d="M49.61,62.25l-5.64-.08-20.59.02c-.95,0-1.82-.36-2.24-.94-.32-.44-.43-4.97-.43-5.91l.06-7.73c.01-1.79-.43-10.18.56-11,1.32-1.09,6.72-.8,9.78-.79l21.2.05c2.04,0,8.98-.36,10.19.53.93.69.85,1.79.85,2.91v20.88c0,3.01-6.18,1.81-8.73,2.05-1.67.16-3.19.04-5.01.01Z"/>
    </clipPath>
  </defs>
  <g id="Layer_1" data-name="Layer 1">
    <g>
      <path class="cls-4" d="M49.5,16.32c0,.32-.41.2-.66.14-3.75-3.21-8.94-3.01-12.55.1"/>
      <path class="cls-4" d="M53.17,11.67c-5.83-5.15-14.47-5.39-20.68-.42-.24.2-.44.5-.36.67"/>
      <path class="cls-4" d="M26.98,7.65c4.04-3.85,9.32-6.37,15.04-6.37,1.12,0,2.11-.15,3.2.01,4.51.68,8.53,2.46,11.92,5.32"/>
      <g>
        <rect class="cls-12" y="21.92" width="84.12" height="84.12" rx="7.68" ry="7.68"/>
        <g class="cls-15">
          <rect class="cls-11" y="21.92" width="84.12" height="84.12" rx="7.68" ry="7.68"/>
        </g>
        <path class="cls-5" d="M66.19,56.27l.21,25.51v.26c.03,3.66-.19,6.96-.05,10.49.07,1.82-.24,4.07-2.16,4.91-2.03.89-4.25.5-6.45.5H22.45c-1.44,0-2.64-.27-3.51-1.17-.93-.95-1.23-2.08-1.23-3.52l.06-39.95c0-1.42-.04-2.53-.04-3.9l.05-15.46c.02-5.31,7.12-3.67,9.04-3.86,2.09-.22,4.07-.02,6.16-.02h10.62s17.54-.12,17.54-.12c2.75-.02,5.23,1.22,5.21,4.28l-.06,10.27c-.02,3.08.33,6.07-.11,8.91l.02,2.86Z"/>
        <path class="cls-14" d="M58.41,75.3c-1.86.41-4.04.3-5.88.04-1.2-.17-1.42-1.6-1.42-2.38,0-.89.29-2.21,1.43-2.39,1.86-.29,4-.3,5.87.01,1.09.18,1.33,1.43,1.38,2.15.06.85-.11,2.29-1.38,2.57Z"/>
        <path class="cls-13" d="M31.35,84.35c-1.95.39-4.12.29-5.97.06-1.17-.14-1.45-1.55-1.44-2.39,0-.94.38-2.33,1.68-2.46,1.79-.18,3.69-.2,5.44,0,1.18.14,1.55,1.39,1.6,2.3.04.73-.09,2.24-1.3,2.48Z"/>
        <path class="cls-13" d="M58.45,84.36c-1.91.38-4.08.29-5.93.04-1.11-.15-1.39-1.48-1.42-2.18-.04-.9.21-2.38,1.36-2.57,1.89-.32,4.04-.35,5.92-.03,1.11.19,1.4,1.46,1.44,2.15.05.88-.12,2.34-1.36,2.58Z"/>
        <path class="cls-3" d="M58.43,93.32c-1.87.41-4.08.38-5.9.03-1.19-.22-1.44-1.55-1.44-2.33,0-.9.28-2.22,1.44-2.41,1.79-.29,3.79-.24,5.66-.04,1.21.12,1.58,1.38,1.62,2.22.04.89-.11,2.24-1.38,2.52Z"/>
        <path class="cls-1" d="M31.04,70.5c1.75.14,1.97,3.26,1.07,4.29-.36.42-1.01.81-1.84.73-1.6-.14-3.27.21-4.86-.16-1.19-.28-1.48-1.5-1.47-2.4s.3-2.19,1.49-2.4c1.79-.32,3.77-.2,5.61-.05Z"/>
        <path class="cls-13" d="M44.79,84.38c-1.8.33-3.89.26-5.69,0-1.25-.17-1.45-1.54-1.46-2.39s.22-2.25,1.45-2.42c1.8-.25,3.82-.25,5.59,0,1.11.16,1.47,1.39,1.49,2.18.02.92-.04,2.38-1.38,2.62Z"/>
        <path class="cls-3" d="M31.14,93.38c-1.92.36-3.98.29-5.72,0-1.22-.2-1.5-1.51-1.48-2.34.02-.88.3-2.23,1.49-2.41,1.79-.28,3.8-.25,5.64-.04,1.19.14,1.52,1.35,1.55,2.21s-.04,2.32-1.47,2.59Z"/>
        <path class="cls-13" d="M46.17,72.64c0,1.1-.02,1.63-.53,2.16-.47.48-1.11.79-1.93.72-1.5-.13-3.07.21-4.59-.16-1.19-.29-1.45-1.52-1.48-2.39s.24-2.21,1.45-2.42c1.74-.31,3.61-.16,5.38-.06,1.08.06,1.7,1.19,1.7,2.17Z"/>
        <path class="cls-13" d="M44.77,93.36c-1.81.37-3.93.31-5.68.04-1.23-.19-1.47-1.54-1.48-2.37,0-.91.27-2.24,1.48-2.41,1.8-.26,3.81-.27,5.58,0,1.09.16,1.46,1.33,1.48,2.17s-.03,2.29-1.39,2.57Z"/>
        <path class="cls-6" d="M49.61,63.98l-5.64-.09-20.59.02c-.95,0-1.82-.4-2.24-1.06-.32-.5-.43-5.58-.43-6.64l.06-8.68c.01-2.01-.43-11.44.56-12.36,1.32-1.22,6.72-.9,9.78-.89l21.2.06c2.04,0,8.98-.41,10.19.6.93.78.85,2.01.85,3.27v23.46c0,3.39-6.18,2.03-8.73,2.3-1.67.18-3.19.04-5.01.01Z"/>
        <g class="cls-10">
          <path class="cls-8" d="M46.85,85.48l1.74-20.97s.12-5.91.06-7.72c-4.08-1.92-6.05-6.51-4.81-10.78.92-3.17,2.62-7.49,6.27-7.39,4.07.11,6.59,6.4,6.56,10.48-.03,3.54-2.09,6.31-5.36,7.66-.23,1.86-.3,7.92-.3,7.92l1.44,21.12c.03,1.81-1.13,3.12-2.7,3.13-1.85,0-3.06-1.46-2.89-3.46Z"/>
          <path class="cls-8" d="M33.25,57.55c-3.27-.91-5.16-3.58-4.84-6.83.36-3.77.43-7.38.52-11.18.01-.55.44-.72.7-.77.35-.06.92.09.93.6l.14,11.5c0,.45.21.72.6.75s.63-.2.63-.8l-.04-11.26c0-.61.4-.98,1-.84.42.09.58.44.59,1l.16,11.13c0,.38.28.7.49.74.38.06.75-.22.74-.77l-.08-11.48c0-.51.51-.82.88-.75s.63.4.64.89l.26,11.48c.01.52.46.58.69.57.36-.01.52-.32.51-.73l-.11-11.3c0-.54.49-.96.88-.91.47.07.68.5.72,1.07l.84,11.48c.22,2.97-1.48,5.47-4.19,6.53-.16,1.69,1.17,21.18,1.38,28.18.06,1.86-1.17,3.16-2.83,3.11-1.81-.05-2.81-1.54-2.67-3.43l1.48-28Z"/>
        </g>
      </g>
      <g>
        <path class="cls-9" d="M105.93,55.81h10.69l-6.11,30.66h-10.69l6.11-30.66ZM106.61,47.09c0-3.45,2.72-6.11,6.9-6.11,3.79,0,6.22,2.21,6.22,5.15,0,3.68-2.77,6.28-6.96,6.28-3.79,0-6.17-2.38-6.17-5.32Z"/>
        <path class="cls-9" d="M171.84,46.87l-7.81,39.6h-10.35l4.07-20.88-13.18,16.97h-4.92l-7.18-16.97-4.19,20.88h-10.3l7.92-39.6h9.11l9.28,22.91,17.99-22.91h9.56Z"/>
        <path class="cls-9" d="M209.96,55.81l-6.11,30.66h-10.18l.62-2.89c-2.38,2.21-5.32,3.39-8.88,3.39-6.62,0-12.96-5.03-12.96-13.97,0-10.18,7.47-17.71,16.63-17.71,4.13,0,7.47,1.24,9.39,4.19l.74-3.68h10.75ZM196.44,69.78c0-3.56-2.15-5.88-5.83-5.88-4.24,0-7.3,3.45-7.3,8.6,0,3.56,2.15,5.83,5.83,5.83,4.3,0,7.3-3.45,7.3-8.54Z"/>
        <path class="cls-9" d="M235.75,69.38l10.3,17.09h-12.56l-6.28-10.47-4.41,3.85-1.3,6.62h-10.75l8.37-41.98h10.75l-4.36,21.78,12.39-10.47h13.58l-15.73,13.58Z"/>
        <path class="cls-9" d="M281.18,73.8h-22.52c.4,3.39,2.72,4.98,6.96,4.98,2.72,0,5.37-.85,7.41-2.49l4.47,6.73c-3.85,2.83-8.43,3.96-13.07,3.96-9.84,0-16.29-5.43-16.29-13.97,0-10.18,7.52-17.71,18.56-17.71,9.33,0,15.1,5.43,15.1,13.46,0,1.81-.28,3.51-.62,5.03ZM259.28,68.14h12.62c.06-3.28-2.26-5.2-5.71-5.2-3.62,0-5.88,2.15-6.9,5.2Z"/>
        <path class="cls-9" d="M309.91,55.3l-1.87,9.67c-.96-.11-1.58-.17-2.43-.17-4.7,0-7.69,2.09-8.71,7.18l-2.94,14.48h-10.75l6.11-30.66h10.18l-.68,3.39c2.72-2.77,6.51-3.9,11.09-3.9Z"/>
        <path class="cls-2" d="M347.66,74.59l6.73,11.88h-11.71l-5.88-10.52h-5.66l-2.09,10.52h-11.2l7.92-39.6h16.92c10.13,0,15.95,4.7,15.95,12.62,0,7.3-4.07,12.73-10.98,15.1ZM341.1,55.69h-5.88l-2.38,11.6h6.68c4.92,0,7.81-2.38,7.81-6.73,0-3.34-2.38-4.86-6.22-4.86Z"/>
        <path class="cls-2" d="M393.25,73.8h-22.52c.4,3.39,2.72,4.98,6.96,4.98,2.72,0,5.37-.85,7.41-2.49l4.47,6.73c-3.85,2.83-8.43,3.96-13.07,3.96-9.84,0-16.29-5.43-16.29-13.97,0-10.18,7.52-17.71,18.56-17.71,9.33,0,15.1,5.43,15.1,13.46,0,1.81-.28,3.51-.62,5.03ZM371.36,68.14h12.62c.06-3.28-2.26-5.2-5.71-5.2-3.62,0-5.88,2.15-6.9,5.2Z"/>
        <path class="cls-2" d="M393.98,83.98l3.9-7.52c2.83,1.81,7.02,2.83,10.64,2.83s4.92-.85,4.92-2.21c0-3.51-15.9-.28-15.9-10.64,0-7.35,7.07-11.15,16.35-11.15,4.36,0,8.66.91,11.65,2.43l-3.79,7.52c-3-1.81-6.39-2.32-9.11-2.32-3.51,0-4.92,1.08-4.92,2.32,0,3.68,15.84.4,15.84,10.64,0,7.35-7.18,11.09-16.29,11.09-5.43,0-10.64-1.3-13.29-3Z"/>
        <path class="cls-2" d="M440.48,75.04c-.06.4-.11.74-.11,1.02,0,1.7.96,2.6,2.83,2.6,1.13,0,2.15-.34,3.22-.91l1.36,7.41c-2.26,1.3-5.15,1.81-7.98,1.81-6.28,0-10.35-3.28-10.35-8.99,0-.91.06-1.87.28-2.89l2.04-10.13h-4.53l1.64-8.03h4.47l1.58-7.98h10.75l-1.58,7.98h6.96l-1.58,8.03h-6.96l-2.04,10.07Z"/>
        <path class="cls-2" d="M478.21,55.3l-1.87,9.67c-.96-.11-1.58-.17-2.43-.17-4.7,0-7.69,2.09-8.71,7.18l-2.94,14.48h-10.75l6.11-30.66h10.18l-.68,3.39c2.72-2.77,6.51-3.9,11.09-3.9Z"/>
        <path class="cls-2" d="M477.13,73c0-10.13,7.86-17.71,18.84-17.71,9.79,0,16.07,5.49,16.07,13.92,0,10.18-7.86,17.76-18.84,17.76-9.79,0-16.07-5.54-16.07-13.97ZM501.12,69.78c0-3.56-2.09-5.88-5.77-5.88-4.3,0-7.3,3.45-7.3,8.6,0,3.56,2.09,5.83,5.77,5.83,4.3,0,7.3-3.45,7.3-8.54Z"/>
      </g>
    </g>
  </g>
</svg>