<svg xmlns="http://www.w3.org/2000/svg" viewBox="0 0 48 48" id="dining-table">
  <path fill="#b5633a" d="M14.999 42c.033 0 .066-.001.101-.005.55-.055.95-.545.896-1.095l-1-10c-.055-.549-.536-.947-1.095-.896-.55.055-.95.545-.896 1.095l1 10c.052.516.486.9.994.9zM3.001 42c.508 0 .942-.385.994-.9l1-10c.055-.55-.346-1.04-.896-1.095-.558-.05-1.039.346-1.095.896l-1 10c-.055.55.346 1.04.896 1.095.034.003.067.005.101.005z"></path>
  <path fill="#9a4c29" d="M5 31.1l-.29 2.9h-.59c-.49 0-.97-.08-1.41-.23l.29-2.87c.06-.55.54-.95 1.1-.9.55.06.95.55.9 1.1zM15.31 34h-2.02l-.29-2.9c-.05-.55.35-1.04.9-1.1.56-.05 1.04.35 1.1.9l.31 3.1z"></path>
  <path fill="#b5633a" d="M33.001 42c-.033 0-.066-.001-.101-.005-.55-.055-.95-.545-.896-1.095l1-10c.055-.549.536-.947 1.095-.896.55.055.95.545.896 1.095l-1 10c-.052.516-.486.9-.994.9zM44.999 42c-.508 0-.942-.385-.994-.9l-1-10c-.055-.55.346-1.04.896-1.095.558-.05 1.039.346 1.095.896l1 10c.055.55-.346 1.04-.896 1.095-.034.003-.067.005-.101.005z"></path>
  <path fill="#9a4c29" d="M35 31.1l-.29 2.9h-2.02l.31-3.1c.06-.55.54-.95 1.1-.9.55.06.95.55.9 1.1zM45.29 33.77c-.44.15-.92.23-1.41.23h-.59l-.29-2.9c-.05-.55.35-1.04.9-1.1.56-.05 1.04.35 1.1.9l.29 2.87z"></path>
  <path fill="#ffcdb4" d="M15.514 32c.466 0 .897-.211 1.183-.58s.382-.838.266-1.29l-.289-1.122c-.284-1.099-1.273-1.865-2.407-1.865h-7.541s-2.702-11.001-2.702-11.001c-.164-.672-.764-1.142-1.456-1.142h-1.067c-.43 0-.839.185-1.124.507-.284.322-.417.752-.364 1.178l1.631 13.123c.156 1.25 1.223 2.192 2.481 2.192h11.391zM32.486 32c-.466 0-.897-.211-1.183-.58s-.382-.838-.266-1.29l.289-1.122c.284-1.099 1.273-1.865 2.407-1.865h7.541l2.702-11.001c.164-.672.764-1.142 1.456-1.142h1.067c.43 0 .839.185 1.124.507.284.322.417.752.364 1.178l-1.631 13.123c-.156 1.25-1.223 2.192-2.481 2.192h-11.391z"></path>
  <path fill="#a7b0c4" d="m25,8.069v-.069c.552,0,1-.448,1-1s-.448-1-1-1h-2c-.552,0-1,.448-1,1s.448,1,1,1v.069c-3.945.493-7,3.852-7,7.931,0,.339.028.672.069,1h15.862c.041-.328.069-.661.069-1,0-4.079-3.055-7.438-7-7.931Z"></path>
  <path fill="#8c94af" d="m24.125,8.006c3.428,1.271,5.875,4.561,5.875,8.431,0,.191-.025.375-.039.562h1.97c.041-.328.069-.661.069-1,0-4.376-3.515-7.926-7.875-7.994Z"></path>
  <path fill="#8c94af" d="m32,16h-16c-.552,0-1,.448-1,1s.448,1,1,1v1h16v-1c.552,0,1-.448,1-1s-.448-1-1-1Z"></path>
  <path fill="#6f7792" d="m32,16h-3c.552,0,1,.448,1,1s-.448,1-1,1v1h3v-1c.552,0,1-.448,1-1s-.448-1-1-1Z"></path>
  <path fill="#b5633a" d="m22,24v13.465c0,.334-.167.647-.445.832l-2.109,1.406c-.278.185-.445.498-.445.832v.465c0,.552.448,1,1,1h8c.552,0,1-.448,1-1v-.465c0-.334-.167-.647-.445-.832l-2.109-1.406c-.278-.185-.445-.498-.445-.832v-13.465h-4Z"></path>
  <path fill="#9a4c29" d="m22,33.66c.658.187,1.35.299,2.062.299.668,0,1.316-.104,1.938-.269v-9.689h-4v9.66Z"></path>
  <path fill="#fff1e9" d="m14.7,30.99c1.737-1.321,4.552-1.321,6.289,0h0c1.698,1.291,4.45,1.291,6.147,0l.169-.128c1.822-1.383,4.275-1.203,6.099.177.997.754,2.357,1.06,3.655.92,1.099-.119,1.866-1.154,1.722-2.25l-1.314-9.97c-.131-.995-.979-1.739-1.983-1.739H12.513c-1.004,0-1.852.744-1.983,1.739l-1.307,9.916c-.146,1.108.643,2.124,1.753,2.256,1.317.157,2.708-.148,3.724-.921Z"></path>
</svg>
