<svg xmlns="http://www.w3.org/2000/svg" viewBox="0 0 48 48" id="takeaway">
  <path fill="#f3d19f" d="m38,45H10c-.823,0-1.591-.327-2.162-.92-.57-.593-.867-1.373-.835-2.195l.897-23.337c.019-.486.107-.966.265-1.426l2.781-8.13c.036-.104.054-.212.054-.323v-3.667c0-1.103.897-2,2-2h22c1.103,0,2,.897,2,2v3.667c0,.111.018.219.054.323l2.781,8.131c.157.459.246.94.265,1.427l.897,23.336c.032.822-.265,1.602-.835,2.195-.571.593-1.339.92-2.162.92Z"></path>
  <path fill="#e5b37c" d="M35 3H13c-1.103 0-2 .897-2 2v3.667c0 .111-.018.219-.054.323l-.003.009h26.114l-.003-.01c-.036-.104-.054-.212-.054-.323v-3.667c0-1.103-.897-2-2-2zM39 42H9c-.739 0-1.425-.276-1.972-.758l-.025.643c-.032.822.265 1.602.835 2.195.571.593 1.339.92 2.162.92h28c.823 0 1.591-.327 2.162-.92.57-.593.867-1.373.835-2.195l-.025-.643c-.547.483-1.233.758-1.972.758z"></path>
  <path fill="#9a4c29" d="M23 21.323c0-2.485-1.567-5.323-3.5-5.323s-3.5 2.838-3.5 5.323c0 1.792.821 2.901 2 3.386v11.291c0 .552.448 1 1 1h1c.552 0 1-.448 1-1v-11.291c1.179-.485 2-1.594 2-3.386zM31 16c-.553 0-1 .448-1 1v4h-.5v-4c0-.552-.447-1-1-1s-1 .448-1 1v4h-.5v-4c0-.552-.447-1-1-1s-1 .448-1 1v4.5c0 1.391.822 2.585 2 3.149v11.351c0 .552.448 1 1 1h1c.552 0 1-.448 1-1v-11.351c1.178-.564 2-1.758 2-3.149v-4.5c0-.552-.447-1-1-1z"></path>
  <path fill="#b5633a" d="M19.5 16c-1.467 0-2.722 1.636-3.242 3.511.644 2.018 2.511 3.489 4.742 3.489.643 0 1.252-.132 1.817-.353.115-.392.183-.829.183-1.324 0-2.485-1.567-5.323-3.5-5.323zM30 23c.634 0 1.236-.13 1.794-.346.129-.362.206-.748.206-1.154v-4.5c0-.552-.447-1-1-1s-1 .448-1 1v4h-.5v-4c0-.552-.447-1-1-1s-1 .448-1 1v4h-.5v-4c0-.552-.447-1-1-1s-1 .448-1 1v1c0 2.761 2.239 5 5 5z"></path>
</svg>
